M48
;DRILL file {KiCad 4.0.6} date 11/02/17 10:09:40
;FORMAT={-:-/ absolute / metric / decimal}
FMAT,2
METRIC,TZ
T1C0.300
T2C0.950
%
G90
G05
M71
T1
X120.Y-102.5
X120.Y-103.5
X120.Y-104.5
X120.Y-105.5
X122.5Y-108.9
X123.15Y-108.3
X123.4Y-99.6
X123.9Y-109.05
X123.9Y-111.65
X125.5Y-101.5
X125.5Y-105.95
X125.5Y-110.05
X125.85Y-114.3
X126.026Y-115.979
X126.05Y-103.85
X127.052Y-115.196
X127.3Y-101.4
X127.8Y-110.05
X127.9Y-115.35
X128.4Y-99.3
X128.4Y-100.1
X128.5Y-108.8
X128.719Y-115.359
X129.6Y-97.1
X131.8Y-102.2
X132.6Y-104.9
X132.6Y-105.8
X132.9Y-108.8
X132.9Y-110.85
X132.9Y-113.
X133.7Y-104.9
X134.8Y-101.5
X136.1Y-106.9
X136.1Y-107.7
X137.5Y-113.1
X138.6Y-102.
X138.9Y-113.1
X139.7Y-115.6
X141.Y-107.3
X142.Y-101.8
X143.9Y-102.9
X145.1Y-106.3
X145.5Y-103.1
X147.2Y-99.2
X149.3Y-113.9
T2
X140.97Y-104.775
X143.51Y-104.775
X146.05Y-104.775
X148.59Y-104.775
T0
M30
