G04 #@! TF.FileFunction,Copper,L1,Top,Signal*
%FSLAX46Y46*%
G04 Gerber Fmt 4.6, Leading zero omitted, Abs format (unit mm)*
G04 Created by KiCad (PCBNEW 4.0.6) date 11/02/17 10:09:17*
%MOMM*%
%LPD*%
G01*
G04 APERTURE LIST*
%ADD10C,0.200000*%
%ADD11R,1.400000X0.250000*%
%ADD12R,0.300000X0.400000*%
%ADD13R,1.000000X1.000000*%
%ADD14R,0.230000X0.785000*%
%ADD15R,0.400000X0.400000*%
%ADD16R,0.500000X0.500000*%
%ADD17R,2.800000X1.400000*%
%ADD18R,0.600000X0.900000*%
%ADD19R,0.900000X0.600000*%
%ADD20R,1.270000X0.700000*%
%ADD21R,0.400000X0.300000*%
%ADD22R,0.785000X0.230000*%
%ADD23R,1.350000X2.000000*%
%ADD24R,1.500000X0.400000*%
%ADD25R,4.000000X2.000000*%
%ADD26C,1.700000*%
%ADD27C,0.600000*%
%ADD28C,0.250000*%
%ADD29C,0.150000*%
G04 APERTURE END LIST*
D10*
D11*
X131200000Y-110150000D03*
X131200000Y-109500000D03*
X131200000Y-104300000D03*
X131200000Y-104950000D03*
X131200000Y-105600000D03*
X131200000Y-106250000D03*
X131200000Y-106900000D03*
X131200000Y-107550000D03*
X131200000Y-108200000D03*
X131200000Y-108850000D03*
X137600000Y-110150000D03*
X137600000Y-109500000D03*
X137600000Y-108850000D03*
X137600000Y-108200000D03*
X137600000Y-107550000D03*
X137600000Y-106900000D03*
X137600000Y-106250000D03*
X137600000Y-105600000D03*
X137600000Y-104950000D03*
X137600000Y-104300000D03*
D12*
X132731000Y-114396000D03*
X132081000Y-114396000D03*
X131431000Y-114396000D03*
X132731000Y-116246000D03*
X132081000Y-116246000D03*
X131431000Y-116246000D03*
D13*
X132361000Y-115316000D03*
D14*
X131341000Y-115296000D03*
D15*
X125225000Y-115951000D03*
X123825000Y-115951000D03*
D16*
X142700000Y-115400000D03*
X142700000Y-114500000D03*
X132900000Y-112100000D03*
X133800000Y-112100000D03*
X123400000Y-100550000D03*
X123400000Y-101450000D03*
X129200000Y-100100000D03*
X130100000Y-100100000D03*
X132600000Y-102200000D03*
X132600000Y-101300000D03*
D17*
X134620000Y-103200000D03*
X134620000Y-100400000D03*
D16*
X140200000Y-107300000D03*
X139300000Y-107300000D03*
X131981000Y-113050000D03*
X131981000Y-112150000D03*
D15*
X129200000Y-105550000D03*
X127800000Y-105550000D03*
X127800000Y-109300000D03*
X129200000Y-109300000D03*
X126900000Y-109300000D03*
X125500000Y-109300000D03*
X123931000Y-108300000D03*
X123931000Y-109700000D03*
D16*
X123150000Y-107300000D03*
X123150000Y-106400000D03*
X133800000Y-114800000D03*
X133800000Y-115700000D03*
X133800000Y-113000000D03*
X133800000Y-113900000D03*
X127700000Y-102300000D03*
X127700000Y-103200000D03*
X142700000Y-113100000D03*
X143600000Y-113100000D03*
X125600000Y-108250000D03*
X126500000Y-108250000D03*
X131500000Y-100100000D03*
X132400000Y-100100000D03*
X128700000Y-104700000D03*
X127800000Y-104700000D03*
X129400000Y-116050000D03*
X130300000Y-116050000D03*
X129400000Y-115200000D03*
X130300000Y-115200000D03*
X124781000Y-112500000D03*
X123881000Y-112500000D03*
X123881000Y-113700000D03*
X124781000Y-113700000D03*
X144200000Y-102200000D03*
X143300000Y-102200000D03*
X127381000Y-114450000D03*
X128281000Y-114450000D03*
X140300000Y-102200000D03*
X141200000Y-102200000D03*
X136765000Y-102200000D03*
X137665000Y-102200000D03*
X124831000Y-110700000D03*
X123931000Y-110700000D03*
X124781000Y-114950000D03*
X123881000Y-114950000D03*
X130981000Y-113050000D03*
X130981000Y-112150000D03*
X129400000Y-114350000D03*
X130300000Y-114350000D03*
D18*
X126500000Y-104800000D03*
X125550000Y-104800000D03*
X124600000Y-104800000D03*
X124600000Y-107100000D03*
X125550000Y-107100000D03*
X126500000Y-107100000D03*
D19*
X129000000Y-101300000D03*
X129000000Y-102250000D03*
X129000000Y-103200000D03*
X131300000Y-103200000D03*
X131300000Y-101300000D03*
D20*
X141296000Y-115600000D03*
X141296000Y-114330000D03*
X141296000Y-113060000D03*
X141296000Y-111790000D03*
X135200000Y-111790000D03*
X135200000Y-113060000D03*
X135200000Y-114330000D03*
X135200000Y-115600000D03*
D18*
X126500000Y-100600000D03*
X125550000Y-100600000D03*
X124600000Y-100600000D03*
X124600000Y-102900000D03*
X126500000Y-102900000D03*
D21*
X127580000Y-106830000D03*
X127580000Y-107480000D03*
X127580000Y-108130000D03*
X129430000Y-106830000D03*
X129430000Y-107480000D03*
X129430000Y-108130000D03*
D13*
X128500000Y-107200000D03*
D22*
X128480000Y-108220000D03*
D12*
X127401000Y-111680000D03*
X126751000Y-111680000D03*
X126101000Y-111680000D03*
X127401000Y-113530000D03*
X126751000Y-113530000D03*
X126101000Y-113530000D03*
D13*
X127031000Y-112600000D03*
D14*
X126011000Y-112580000D03*
D21*
X143280000Y-99830000D03*
X143280000Y-100480000D03*
X143280000Y-101130000D03*
X145130000Y-99830000D03*
X145130000Y-100480000D03*
X145130000Y-101130000D03*
D13*
X144200000Y-100200000D03*
D22*
X144180000Y-101220000D03*
D21*
X140280000Y-99830000D03*
X140280000Y-100480000D03*
X140280000Y-101130000D03*
X142130000Y-99830000D03*
X142130000Y-100480000D03*
X142130000Y-101130000D03*
D13*
X141200000Y-100200000D03*
D22*
X141180000Y-101220000D03*
D12*
X129801000Y-111680000D03*
X129151000Y-111680000D03*
X128501000Y-111680000D03*
X129801000Y-113530000D03*
X129151000Y-113530000D03*
X128501000Y-113530000D03*
D13*
X129431000Y-112600000D03*
D14*
X128411000Y-112580000D03*
D21*
X136745000Y-99830000D03*
X136745000Y-100480000D03*
X136745000Y-101130000D03*
X138595000Y-99830000D03*
X138595000Y-100480000D03*
X138595000Y-101130000D03*
D13*
X137665000Y-100200000D03*
D22*
X137645000Y-101220000D03*
D23*
X119700000Y-100600000D03*
D24*
X122400000Y-105250000D03*
X122400000Y-104600000D03*
X122400000Y-103950000D03*
X122400000Y-103300000D03*
X122400000Y-102650000D03*
D23*
X119700000Y-107300000D03*
D25*
X147193000Y-115570000D03*
X127889000Y-97790000D03*
X123063000Y-97790000D03*
X132715000Y-97790000D03*
X137541000Y-97790000D03*
X142367000Y-97790000D03*
X147193000Y-97790000D03*
X121031000Y-110490000D03*
X121031000Y-115570000D03*
X121031000Y-113030000D03*
D26*
X148590000Y-104775000D03*
X146050000Y-104775000D03*
X140970000Y-104775000D03*
X143510000Y-104775000D03*
D16*
X147900000Y-110400000D03*
X148800000Y-110400000D03*
X147900000Y-109200000D03*
X148800000Y-109200000D03*
X147900000Y-108000000D03*
X148800000Y-108000000D03*
X147900000Y-106800000D03*
X148800000Y-106800000D03*
X147900000Y-102100000D03*
X148800000Y-102100000D03*
X147900000Y-101000000D03*
X148800000Y-101000000D03*
X147900000Y-99900000D03*
X148800000Y-99900000D03*
D25*
X152019000Y-113030000D03*
X152019000Y-110490000D03*
X152019000Y-107950000D03*
X152019000Y-105410000D03*
X152019000Y-102870000D03*
X152019000Y-100330000D03*
X152019000Y-97790000D03*
X152019000Y-115570000D03*
D16*
X139400000Y-101300000D03*
X139400000Y-102200000D03*
D27*
X126025926Y-115978634D03*
X125850000Y-114300002D03*
X126049999Y-103850000D03*
X136100000Y-107700000D03*
X133700000Y-104900000D03*
X149300000Y-113900000D03*
X147200000Y-99200000D03*
X143900000Y-102900000D03*
X134800000Y-101500000D03*
X128400000Y-100100000D03*
X131800000Y-102200000D03*
X141000000Y-107300000D03*
X132900000Y-113000000D03*
X128500000Y-108800000D03*
X125500000Y-101500000D03*
X123400000Y-99600000D03*
X120000000Y-105500000D03*
X120000000Y-104500000D03*
X120000000Y-103500000D03*
X120000000Y-102500000D03*
X123150000Y-108300000D03*
X123900000Y-111650000D03*
X139700000Y-115600000D03*
X138900000Y-113100000D03*
X137500000Y-113100000D03*
X138600000Y-102000000D03*
X127900000Y-115350000D03*
X122500000Y-108900000D03*
X142000000Y-101800000D03*
X129600000Y-97100000D03*
X136100000Y-106900000D03*
X132900000Y-108800000D03*
X132900000Y-110850000D03*
X125500000Y-105950000D03*
X125500000Y-110050000D03*
X128718988Y-115358631D03*
X127800000Y-110050000D03*
X123900000Y-109050000D03*
X132600000Y-104899998D03*
X127051837Y-115195645D03*
X132600000Y-105800000D03*
X128400000Y-99299997D03*
X127300000Y-101400000D03*
X145100000Y-106300000D03*
X145500000Y-103100000D03*
D28*
X144180000Y-101220000D02*
X144180000Y-102180000D01*
X144180000Y-102180000D02*
X144200000Y-102200000D01*
X125998292Y-115951000D02*
X126025926Y-115978634D01*
X125225000Y-115951000D02*
X125998292Y-115951000D01*
X126101000Y-114049002D02*
X125850000Y-114300002D01*
X126101000Y-113530000D02*
X126101000Y-114049002D01*
X125800000Y-103850000D02*
X126049999Y-103850000D01*
X125550000Y-104100000D02*
X125800000Y-103850000D01*
X125550000Y-104800000D02*
X125550000Y-104100000D01*
X144100000Y-102600000D02*
X144100000Y-102300000D01*
X144100000Y-102300000D02*
X144200000Y-102200000D01*
X143900000Y-102800000D02*
X144100000Y-102600000D01*
X143900000Y-102900000D02*
X143900000Y-102800000D01*
X144080000Y-102080000D02*
X144200000Y-102200000D01*
X137600000Y-107550000D02*
X136250000Y-107550000D01*
X136250000Y-107550000D02*
X136100000Y-107700000D01*
X127700000Y-102300000D02*
X127600000Y-102200000D01*
X127600000Y-102200000D02*
X127100000Y-102200000D01*
X127100000Y-102200000D02*
X126800000Y-101900000D01*
X126800000Y-101900000D02*
X125900000Y-101900000D01*
X125900000Y-101900000D02*
X125500000Y-101500000D01*
X131200000Y-104300000D02*
X132274996Y-104300000D01*
X132274996Y-104300000D02*
X132299999Y-104274997D01*
X132299999Y-104274997D02*
X133074997Y-104274997D01*
X133074997Y-104274997D02*
X133700000Y-104900000D01*
X152019000Y-115570000D02*
X151019000Y-115570000D01*
X151019000Y-115570000D02*
X149349000Y-113900000D01*
X149349000Y-113900000D02*
X149300000Y-113900000D01*
X147193000Y-97790000D02*
X147193000Y-99193000D01*
X147193000Y-99193000D02*
X147200000Y-99200000D01*
X134620000Y-100400000D02*
X134620000Y-101320000D01*
X134620000Y-101320000D02*
X134800000Y-101500000D01*
X129200000Y-100100000D02*
X128400000Y-100100000D01*
X129000000Y-102250000D02*
X127750000Y-102250000D01*
X127750000Y-102250000D02*
X127700000Y-102300000D01*
X132600000Y-102200000D02*
X131800000Y-102200000D01*
X140200000Y-107300000D02*
X141000000Y-107300000D01*
X144680000Y-101220000D02*
X144770000Y-101130000D01*
X144770000Y-101130000D02*
X145130000Y-101130000D01*
X144180000Y-101220000D02*
X144680000Y-101220000D01*
X132900000Y-112100000D02*
X132900000Y-113000000D01*
X131981000Y-112150000D02*
X132850000Y-112150000D01*
X132850000Y-112150000D02*
X132900000Y-112100000D01*
X128480000Y-108220000D02*
X128480000Y-108780000D01*
X128480000Y-108780000D02*
X128500000Y-108800000D01*
X125550000Y-100600000D02*
X125550000Y-101450000D01*
X125550000Y-101450000D02*
X125500000Y-101500000D01*
X123400000Y-99600000D02*
X123400000Y-98127000D01*
X123400000Y-98127000D02*
X123063000Y-97790000D01*
X123400000Y-100550000D02*
X123400000Y-99600000D01*
X120000000Y-104500000D02*
X120000000Y-105200000D01*
X122400000Y-105250000D02*
X120050000Y-105250000D01*
X120000000Y-105200000D02*
X120000000Y-105500000D01*
X120050000Y-105250000D02*
X120000000Y-105200000D01*
X119700000Y-107300000D02*
X119700000Y-105800000D01*
X119700000Y-105800000D02*
X120000000Y-105500000D01*
X120000000Y-103500000D02*
X120000000Y-104500000D01*
X120000000Y-102500000D02*
X120000000Y-103500000D01*
X119700000Y-100600000D02*
X119700000Y-102200000D01*
X119700000Y-102200000D02*
X120000000Y-102500000D01*
X123150000Y-107300000D02*
X123150000Y-108300000D01*
X123931000Y-108300000D02*
X123150000Y-108300000D01*
X123881000Y-112500000D02*
X123881000Y-111669000D01*
X123881000Y-111669000D02*
X123900000Y-111650000D01*
X128480000Y-108220000D02*
X129030000Y-108220000D01*
X129030000Y-108220000D02*
X129120000Y-108130000D01*
X129120000Y-108130000D02*
X129430000Y-108130000D01*
X141296000Y-115600000D02*
X139700000Y-115600000D01*
X142700000Y-115400000D02*
X141496000Y-115400000D01*
X141496000Y-115400000D02*
X141296000Y-115600000D01*
X123881000Y-112500000D02*
X121561000Y-112500000D01*
X121561000Y-112500000D02*
X121031000Y-113030000D01*
X130981000Y-112150000D02*
X131981000Y-112150000D01*
X126011000Y-113080000D02*
X126101000Y-113170000D01*
X126101000Y-113170000D02*
X126101000Y-113530000D01*
X126011000Y-112580000D02*
X126011000Y-113080000D01*
X138900000Y-113100000D02*
X140130000Y-114330000D01*
X140130000Y-114330000D02*
X141296000Y-114330000D01*
X135200000Y-113060000D02*
X137460000Y-113060000D01*
X137460000Y-113060000D02*
X137500000Y-113100000D01*
X142700000Y-114500000D02*
X141466000Y-114500000D01*
X141466000Y-114500000D02*
X141296000Y-114330000D01*
X133800000Y-113000000D02*
X135140000Y-113000000D01*
X135140000Y-113000000D02*
X135200000Y-113060000D01*
X133800000Y-112100000D02*
X133900000Y-112000000D01*
X133900000Y-112000000D02*
X134990000Y-112000000D01*
X134990000Y-112000000D02*
X135200000Y-111790000D01*
X123400000Y-102600000D02*
X122450000Y-102600000D01*
X122450000Y-102600000D02*
X122400000Y-102650000D01*
X123400000Y-102600000D02*
X124500000Y-102600000D01*
X123400000Y-101450000D02*
X123400000Y-102600000D01*
X124500000Y-102600000D02*
X124600000Y-102700000D01*
X124600000Y-102700000D02*
X124600000Y-102900000D01*
X138595000Y-101130000D02*
X138595000Y-101995000D01*
X138595000Y-101995000D02*
X138600000Y-102000000D01*
X139000000Y-101200000D02*
X139300000Y-101200000D01*
X139300000Y-101200000D02*
X139400000Y-101300000D01*
X138930000Y-101130000D02*
X139000000Y-101200000D01*
X138595000Y-101130000D02*
X138930000Y-101130000D01*
X130300000Y-116050000D02*
X130300000Y-116625001D01*
X130300000Y-116625001D02*
X131374999Y-116625001D01*
X131374999Y-116625001D02*
X131431000Y-116569000D01*
X131431000Y-116569000D02*
X131431000Y-116246000D01*
X128750737Y-116625001D02*
X130300000Y-116625001D01*
X127900000Y-115350000D02*
X127900000Y-115774264D01*
X127900000Y-115774264D02*
X128750737Y-116625001D01*
X128281000Y-114450000D02*
X128281000Y-114544736D01*
X127900000Y-114925736D02*
X127900000Y-115350000D01*
X128281000Y-114544736D02*
X127900000Y-114925736D01*
X122450000Y-108300000D02*
X122450000Y-108850000D01*
X122450000Y-108850000D02*
X122500000Y-108900000D01*
X122450000Y-106014998D02*
X122450000Y-108300000D01*
X123410001Y-105775001D02*
X122689997Y-105775001D01*
X122689997Y-105775001D02*
X122450000Y-106014998D01*
X123750000Y-104314998D02*
X123750000Y-105435002D01*
X123750000Y-105435002D02*
X123410001Y-105775001D01*
X125163590Y-103850000D02*
X124214998Y-103850000D01*
X124214998Y-103850000D02*
X123750000Y-104314998D01*
X125300000Y-102225002D02*
X125300000Y-103713590D01*
X125300000Y-103713590D02*
X125163590Y-103850000D01*
X124600000Y-100600000D02*
X124600000Y-101525002D01*
X124600000Y-101525002D02*
X125300000Y-102225002D01*
X128501000Y-113880000D02*
X128501000Y-113530000D01*
X128281000Y-114100000D02*
X128501000Y-113880000D01*
X128281000Y-114450000D02*
X128281000Y-114100000D01*
X142130000Y-101130000D02*
X142130000Y-101670000D01*
X142130000Y-101670000D02*
X142000000Y-101800000D01*
X128910000Y-97790000D02*
X129300001Y-97399999D01*
X129300001Y-97399999D02*
X129600000Y-97100000D01*
X127889000Y-97790000D02*
X128910000Y-97790000D01*
X127500000Y-100500000D02*
X127500000Y-99500000D01*
X127500000Y-99500000D02*
X127500000Y-98179000D01*
X125000000Y-99500000D02*
X127500000Y-99500000D01*
X129000000Y-101300000D02*
X128300000Y-101300000D01*
X128300000Y-101300000D02*
X127500000Y-100500000D01*
X127500000Y-98179000D02*
X127889000Y-97790000D01*
X130000000Y-102900000D02*
X130000000Y-101300000D01*
X129700000Y-101300000D02*
X130000000Y-101300000D01*
X130000000Y-101300000D02*
X130000000Y-100200000D01*
X129700000Y-101300000D02*
X129000000Y-101300000D01*
X129000000Y-103200000D02*
X129700000Y-103200000D01*
X129700000Y-103200000D02*
X130000000Y-102900000D01*
X130000000Y-100200000D02*
X130100000Y-100100000D01*
X131500000Y-100100000D02*
X130100000Y-100100000D01*
X141680000Y-101220000D02*
X141770000Y-101130000D01*
X141770000Y-101130000D02*
X142130000Y-101130000D01*
X141180000Y-101220000D02*
X141680000Y-101220000D01*
X138145000Y-101220000D02*
X138235000Y-101130000D01*
X138235000Y-101130000D02*
X138595000Y-101130000D01*
X137645000Y-101220000D02*
X138145000Y-101220000D01*
X128411000Y-113080000D02*
X128501000Y-113170000D01*
X128501000Y-113170000D02*
X128501000Y-113530000D01*
X128411000Y-112580000D02*
X128411000Y-113080000D01*
X124600000Y-100600000D02*
X124600000Y-99900000D01*
X124600000Y-99900000D02*
X125000000Y-99500000D01*
X131427000Y-116250000D02*
X131431000Y-116246000D01*
X131341000Y-115841000D02*
X131431000Y-115931000D01*
X131431000Y-115931000D02*
X131431000Y-116246000D01*
X131341000Y-115296000D02*
X131341000Y-115841000D01*
X136100000Y-106900000D02*
X137600000Y-106900000D01*
X134800000Y-106900000D02*
X136100000Y-106900000D01*
X127800000Y-104700000D02*
X127800000Y-104200000D01*
X127800000Y-104200000D02*
X128150001Y-103849999D01*
X128150001Y-103849999D02*
X132050001Y-103849999D01*
X132050001Y-103849999D02*
X132700000Y-103200000D01*
X132700000Y-103200000D02*
X134620000Y-103200000D01*
X131200000Y-106900000D02*
X134700000Y-106900000D01*
X134700000Y-106900000D02*
X134800000Y-106900000D01*
X134620000Y-103200000D02*
X134620000Y-106820000D01*
X134620000Y-106820000D02*
X134700000Y-106900000D01*
X132600000Y-101300000D02*
X132725001Y-101425001D01*
X132725001Y-101425001D02*
X133795001Y-101425001D01*
X133795001Y-101425001D02*
X134620000Y-102250000D01*
X134620000Y-102250000D02*
X134620000Y-103200000D01*
X126500000Y-104800000D02*
X127700000Y-104800000D01*
X127700000Y-104800000D02*
X127800000Y-104700000D01*
X131300000Y-101300000D02*
X132600000Y-101300000D01*
X138700000Y-106900000D02*
X137600000Y-106900000D01*
X138700000Y-107300000D02*
X138700000Y-106900000D01*
X139300000Y-107300000D02*
X138700000Y-107300000D01*
X132900000Y-108375736D02*
X132900000Y-108800000D01*
X132900000Y-108300000D02*
X132900000Y-108375736D01*
X131200000Y-107550000D02*
X132150000Y-107550000D01*
X132150000Y-107550000D02*
X132900000Y-108300000D01*
X132475736Y-110850000D02*
X132900000Y-110850000D01*
X131050000Y-110850000D02*
X132475736Y-110850000D01*
X130300000Y-111600000D02*
X131050000Y-110850000D01*
X130300000Y-112869000D02*
X130300000Y-111600000D01*
X130481000Y-113050000D02*
X130300000Y-112869000D01*
X130981000Y-113050000D02*
X130481000Y-113050000D01*
X130300000Y-114350000D02*
X130981000Y-113669000D01*
X130981000Y-113669000D02*
X130981000Y-113050000D01*
X130981000Y-113050000D02*
X131981000Y-113050000D01*
X128700000Y-104700000D02*
X128700000Y-105050000D01*
X128700000Y-105050000D02*
X129200000Y-105550000D01*
X131200000Y-106250000D02*
X129450000Y-106250000D01*
X129450000Y-106250000D02*
X129430000Y-106230000D01*
X129200000Y-105550000D02*
X129200000Y-106000000D01*
X129200000Y-106000000D02*
X129430000Y-106230000D01*
X129430000Y-106230000D02*
X129430000Y-106830000D01*
X129430000Y-107480000D02*
X128780000Y-107480000D01*
X128780000Y-107480000D02*
X128500000Y-107200000D01*
X129430000Y-106830000D02*
X128870000Y-106830000D01*
X128870000Y-106830000D02*
X128500000Y-107200000D01*
X127580000Y-107480000D02*
X128220000Y-107480000D01*
X128220000Y-107480000D02*
X128500000Y-107200000D01*
X127580000Y-106830000D02*
X128130000Y-106830000D01*
X128130000Y-106830000D02*
X128500000Y-107200000D01*
X126500000Y-105950000D02*
X126950000Y-105950000D01*
X126950000Y-105950000D02*
X127350000Y-105550000D01*
X127350000Y-105550000D02*
X127800000Y-105550000D01*
X126500000Y-105950000D02*
X125500000Y-105950000D01*
X126500000Y-107100000D02*
X126500000Y-105950000D01*
X125500000Y-109300000D02*
X125500000Y-110050000D01*
X129400000Y-116050000D02*
X129400000Y-115200000D01*
X128841369Y-115358631D02*
X128841369Y-115258631D01*
X128841369Y-115258631D02*
X128900000Y-115200000D01*
X128900000Y-115200000D02*
X129400000Y-115200000D01*
X128718988Y-115358631D02*
X128841369Y-115358631D01*
X128727619Y-115350000D02*
X128718988Y-115358631D01*
X127800000Y-109300000D02*
X127800000Y-110050000D01*
X126900000Y-109300000D02*
X127800000Y-109300000D01*
X131200000Y-108200000D02*
X130300000Y-108200000D01*
X130300000Y-108200000D02*
X129200000Y-109300000D01*
X123931000Y-109081000D02*
X123900000Y-109050000D01*
X123931000Y-109700000D02*
X123931000Y-109081000D01*
X131200000Y-104950000D02*
X132549998Y-104950000D01*
X132549998Y-104950000D02*
X132600000Y-104899998D01*
X123931000Y-110700000D02*
X121241000Y-110700000D01*
X121241000Y-110700000D02*
X121031000Y-110490000D01*
X123931000Y-109700000D02*
X123931000Y-110700000D01*
X127051837Y-115619909D02*
X127051837Y-115195645D01*
X123825000Y-115951000D02*
X124275000Y-115951000D01*
X124275000Y-115951000D02*
X124927636Y-116603636D01*
X127051837Y-115877727D02*
X127051837Y-115619909D01*
X124927636Y-116603636D02*
X126325928Y-116603636D01*
X126325928Y-116603636D02*
X127051837Y-115877727D01*
X132400000Y-105600000D02*
X132600000Y-105800000D01*
X131200000Y-105600000D02*
X132400000Y-105600000D01*
X123825000Y-115951000D02*
X121412000Y-115951000D01*
X121412000Y-115951000D02*
X121031000Y-115570000D01*
X123831000Y-115950000D02*
X123831000Y-115000000D01*
X123831000Y-115000000D02*
X123881000Y-114950000D01*
X123150000Y-106400000D02*
X123800000Y-106400000D01*
X123800000Y-106400000D02*
X124600000Y-105600000D01*
X124600000Y-105600000D02*
X124600000Y-104800000D01*
X133800000Y-114800000D02*
X133800000Y-114300000D01*
X135200000Y-114330000D02*
X133830000Y-114330000D01*
X133800000Y-114300000D02*
X133800000Y-113900000D01*
X133830000Y-114330000D02*
X133800000Y-114300000D01*
X133800000Y-115700000D02*
X132745000Y-115700000D01*
X132745000Y-115700000D02*
X132361000Y-115316000D01*
X141296000Y-111790000D02*
X138910000Y-111790000D01*
X138910000Y-111790000D02*
X138125001Y-112574999D01*
X138125001Y-112574999D02*
X138125001Y-114874999D01*
X138125001Y-114874999D02*
X137400000Y-115600000D01*
X137400000Y-115600000D02*
X135200000Y-115600000D01*
X133800000Y-115700000D02*
X135100000Y-115700000D01*
X135100000Y-115700000D02*
X135200000Y-115600000D01*
X132731000Y-116246000D02*
X132731000Y-115686000D01*
X132731000Y-115686000D02*
X132361000Y-115316000D01*
X132081000Y-116246000D02*
X132081000Y-115596000D01*
X132081000Y-115596000D02*
X132361000Y-115316000D01*
X132731000Y-114396000D02*
X132731000Y-114946000D01*
X132731000Y-114946000D02*
X132361000Y-115316000D01*
X132081000Y-114396000D02*
X132081000Y-115036000D01*
X132081000Y-115036000D02*
X132361000Y-115316000D01*
X126500000Y-103100000D02*
X126600000Y-103200000D01*
X126600000Y-103200000D02*
X127700000Y-103200000D01*
X126500000Y-102900000D02*
X126500000Y-103100000D01*
X142700000Y-113100000D02*
X141336000Y-113100000D01*
X141336000Y-113100000D02*
X141296000Y-113060000D01*
X143600000Y-114500000D02*
X144670000Y-115570000D01*
X144670000Y-115570000D02*
X147193000Y-115570000D01*
X143600000Y-113100000D02*
X143600000Y-114500000D01*
X125600000Y-108250000D02*
X125600000Y-107150000D01*
X125600000Y-107150000D02*
X125550000Y-107100000D01*
X127580000Y-108130000D02*
X126620000Y-108130000D01*
X126620000Y-108130000D02*
X126500000Y-108250000D01*
X132400000Y-100100000D02*
X132400000Y-99700000D01*
X136541000Y-97790000D02*
X137541000Y-97790000D01*
X132400000Y-99700000D02*
X132800000Y-99300000D01*
X135031000Y-99300000D02*
X136541000Y-97790000D01*
X132800000Y-99300000D02*
X135031000Y-99300000D01*
X130300000Y-115200000D02*
X130800000Y-115200000D01*
X130800000Y-115200000D02*
X130900999Y-115099001D01*
X130900999Y-115099001D02*
X130900999Y-114526001D01*
X130900999Y-114526001D02*
X131031000Y-114396000D01*
X131031000Y-114396000D02*
X131431000Y-114396000D01*
X130300000Y-115200000D02*
X130350000Y-115200000D01*
X130300000Y-115350000D02*
X130231000Y-115350000D01*
X131200000Y-108850000D02*
X130439998Y-108850000D01*
X130439998Y-108850000D02*
X129900000Y-109389998D01*
X129900000Y-109389998D02*
X129900000Y-110000000D01*
X129900000Y-110000000D02*
X129200000Y-110700000D01*
X129200000Y-110700000D02*
X125331000Y-110700000D01*
X125331000Y-110700000D02*
X124831000Y-110700000D01*
X124831000Y-108031000D02*
X124600000Y-107800000D01*
X124600000Y-107800000D02*
X124600000Y-107100000D01*
X124831000Y-110700000D02*
X124831000Y-108031000D01*
X123881000Y-113700000D02*
X123881000Y-113200000D01*
X123987500Y-113093500D02*
X124687500Y-113093500D01*
X124687500Y-113093500D02*
X124781000Y-113000000D01*
X123881000Y-113200000D02*
X123987500Y-113093500D01*
X124781000Y-113000000D02*
X124781000Y-112500000D01*
X123881000Y-113700000D02*
X123881000Y-114200000D01*
X123881000Y-114200000D02*
X123981000Y-114300000D01*
X123981000Y-114300000D02*
X124631000Y-114300000D01*
X124631000Y-114300000D02*
X124781000Y-114450000D01*
X124781000Y-114450000D02*
X124781000Y-114950000D01*
X124831000Y-111500000D02*
X124831000Y-110700000D01*
X124831000Y-111500000D02*
X124831000Y-112450000D01*
X124831000Y-112450000D02*
X124781000Y-112500000D01*
X126101000Y-111680000D02*
X125701000Y-111680000D01*
X125701000Y-111680000D02*
X125481000Y-111900000D01*
X125481000Y-113450000D02*
X125231000Y-113700000D01*
X125481000Y-111900000D02*
X125481000Y-113450000D01*
X125231000Y-113700000D02*
X124781000Y-113700000D01*
X124781000Y-113700000D02*
X124781000Y-113600000D01*
X143280000Y-101130000D02*
X143280000Y-102180000D01*
X143280000Y-102180000D02*
X143300000Y-102200000D01*
X143180000Y-102080000D02*
X143300000Y-102200000D01*
X143200000Y-102700000D02*
X143200000Y-102300000D01*
X143200000Y-102300000D02*
X143300000Y-102200000D01*
X143200000Y-102700000D02*
X142600000Y-103300000D01*
X142600000Y-103300000D02*
X137200000Y-103300000D01*
X137200000Y-103300000D02*
X136250000Y-104250000D01*
X136250000Y-104250000D02*
X136250000Y-105250000D01*
X136250000Y-105250000D02*
X136600000Y-105600000D01*
X136600000Y-105600000D02*
X137600000Y-105600000D01*
X127401000Y-111680000D02*
X128501000Y-111680000D01*
X127401000Y-113530000D02*
X127401000Y-114430000D01*
X127401000Y-114430000D02*
X127381000Y-114450000D01*
X127401000Y-113530000D02*
X127401000Y-112970000D01*
X127401000Y-112970000D02*
X127031000Y-112600000D01*
X126751000Y-113530000D02*
X126751000Y-112880000D01*
X126751000Y-112880000D02*
X127031000Y-112600000D01*
X127401000Y-111680000D02*
X127401000Y-112230000D01*
X127401000Y-112230000D02*
X127031000Y-112600000D01*
X126751000Y-111680000D02*
X126751000Y-112320000D01*
X126751000Y-112320000D02*
X127031000Y-112600000D01*
X140300000Y-102200000D02*
X140300000Y-101150000D01*
X140300000Y-101150000D02*
X140280000Y-101130000D01*
X139400000Y-102849990D02*
X137814990Y-102849990D01*
X137814990Y-102849990D02*
X137665000Y-102700000D01*
X137665000Y-102700000D02*
X137665000Y-102200000D01*
X139400000Y-102849990D02*
X141200000Y-102849990D01*
X139400000Y-102200000D02*
X139400000Y-102849990D01*
X141200000Y-102849990D02*
X142350010Y-102849990D01*
X142350010Y-102849990D02*
X142655000Y-102545000D01*
X142655000Y-102545000D02*
X142655000Y-101595000D01*
X142655000Y-101595000D02*
X142700000Y-101550000D01*
X142830000Y-100480000D02*
X143280000Y-100480000D01*
X142700000Y-101550000D02*
X142700000Y-100610000D01*
X142700000Y-100610000D02*
X142830000Y-100480000D01*
X141200000Y-102200000D02*
X141200000Y-102849990D01*
X145130000Y-100480000D02*
X144480000Y-100480000D01*
X144480000Y-100480000D02*
X144200000Y-100200000D01*
X145130000Y-99830000D02*
X144570000Y-99830000D01*
X144570000Y-99830000D02*
X144200000Y-100200000D01*
X143280000Y-100480000D02*
X143920000Y-100480000D01*
X143920000Y-100480000D02*
X144200000Y-100200000D01*
X143280000Y-99830000D02*
X143830000Y-99830000D01*
X143830000Y-99830000D02*
X144200000Y-100200000D01*
X136765000Y-102200000D02*
X136765000Y-101150000D01*
X136765000Y-101150000D02*
X136745000Y-101130000D01*
X129331000Y-114000000D02*
X129331000Y-114281000D01*
X129331000Y-114281000D02*
X129400000Y-114350000D01*
X129151000Y-113530000D02*
X129151000Y-113820000D01*
X129151000Y-113820000D02*
X129331000Y-114000000D01*
X129801000Y-113530000D02*
X129801000Y-112970000D01*
X129801000Y-112970000D02*
X129431000Y-112600000D01*
X129151000Y-113530000D02*
X129151000Y-112880000D01*
X129151000Y-112880000D02*
X129431000Y-112600000D01*
X129801000Y-111680000D02*
X129801000Y-112230000D01*
X129801000Y-112230000D02*
X129431000Y-112600000D01*
X129151000Y-111680000D02*
X129151000Y-112320000D01*
X129151000Y-112320000D02*
X129431000Y-112600000D01*
X128400000Y-99299997D02*
X130200003Y-99299997D01*
X130200003Y-99299997D02*
X131710000Y-97790000D01*
X131710000Y-97790000D02*
X132715000Y-97790000D01*
X126500000Y-100600000D02*
X127300000Y-101400000D01*
X147900000Y-109200000D02*
X143400000Y-109200000D01*
X143400000Y-109200000D02*
X141999999Y-110600001D01*
X141999999Y-110600001D02*
X134800001Y-110600001D01*
X134800001Y-110600001D02*
X133700000Y-109500000D01*
X133700000Y-109500000D02*
X131200000Y-109500000D01*
X147900000Y-110400000D02*
X143000000Y-110400000D01*
X143000000Y-110400000D02*
X142300000Y-111100000D01*
X142300000Y-111100000D02*
X134163590Y-111100000D01*
X134163590Y-111100000D02*
X133213590Y-110150000D01*
X133213590Y-110150000D02*
X131200000Y-110150000D01*
X137600000Y-110150000D02*
X141650000Y-110150000D01*
X141650000Y-110150000D02*
X143300000Y-108500000D01*
X143300000Y-108500000D02*
X146800000Y-108500000D01*
X146800000Y-108500000D02*
X147300000Y-108000000D01*
X147300000Y-108000000D02*
X147900000Y-108000000D01*
X147900000Y-106800000D02*
X147200000Y-106800000D01*
X147200000Y-106800000D02*
X146000000Y-108000000D01*
X146000000Y-108000000D02*
X143000000Y-108000000D01*
X143000000Y-108000000D02*
X141500000Y-109500000D01*
X141500000Y-109500000D02*
X138550000Y-109500000D01*
X138550000Y-109500000D02*
X137600000Y-109500000D01*
X147900000Y-102100000D02*
X147500000Y-102100000D01*
X147500000Y-102100000D02*
X147300000Y-102300000D01*
X147300000Y-102300000D02*
X147300000Y-105500000D01*
X147300000Y-105500000D02*
X145300000Y-107500000D01*
X145300000Y-107500000D02*
X142700000Y-107500000D01*
X142700000Y-107500000D02*
X141350000Y-108850000D01*
X141350000Y-108850000D02*
X138550000Y-108850000D01*
X138550000Y-108850000D02*
X137600000Y-108850000D01*
X145100000Y-106300000D02*
X144399981Y-107000019D01*
X144399981Y-107000019D02*
X142399981Y-107000019D01*
X142399981Y-107000019D02*
X141200000Y-108200000D01*
X141200000Y-108200000D02*
X138550000Y-108200000D01*
X138550000Y-108200000D02*
X137600000Y-108200000D01*
X147900000Y-101000000D02*
X147400000Y-101000000D01*
X147400000Y-101000000D02*
X145500000Y-102900000D01*
X145500000Y-102900000D02*
X145500000Y-103100000D01*
X147900000Y-99900000D02*
X147400000Y-99900000D01*
X147400000Y-99900000D02*
X144800000Y-102500000D01*
X144800000Y-102500000D02*
X144800000Y-105500000D01*
X144800000Y-105500000D02*
X143749991Y-106550009D01*
X143749991Y-106550009D02*
X139350009Y-106550009D01*
X139350009Y-106550009D02*
X139050000Y-106250000D01*
X139050000Y-106250000D02*
X137600000Y-106250000D01*
X138595000Y-99830000D02*
X140280000Y-99830000D01*
X138595000Y-100480000D02*
X140280000Y-100480000D01*
X141200000Y-98700000D02*
X142110000Y-97790000D01*
X142110000Y-97790000D02*
X142367000Y-97790000D01*
X141200000Y-100200000D02*
X141200000Y-98700000D01*
X142130000Y-100480000D02*
X141480000Y-100480000D01*
X141480000Y-100480000D02*
X141200000Y-100200000D01*
X142130000Y-99830000D02*
X141570000Y-99830000D01*
X141570000Y-99830000D02*
X141200000Y-100200000D01*
X140280000Y-100480000D02*
X140920000Y-100480000D01*
X140920000Y-100480000D02*
X141200000Y-100200000D01*
X140280000Y-99830000D02*
X140830000Y-99830000D01*
X140830000Y-99830000D02*
X141200000Y-100200000D01*
X138595000Y-100480000D02*
X137945000Y-100480000D01*
X137945000Y-100480000D02*
X137665000Y-100200000D01*
X138595000Y-99830000D02*
X138035000Y-99830000D01*
X138035000Y-99830000D02*
X137665000Y-100200000D01*
X136745000Y-100480000D02*
X137385000Y-100480000D01*
X137385000Y-100480000D02*
X137665000Y-100200000D01*
X136745000Y-99830000D02*
X137295000Y-99830000D01*
X137295000Y-99830000D02*
X137665000Y-100200000D01*
X149860000Y-112268000D02*
X151257000Y-112268000D01*
X151257000Y-112268000D02*
X152019000Y-113030000D01*
X149606000Y-112014000D02*
X149860000Y-112268000D01*
X149606000Y-110706000D02*
X149606000Y-112014000D01*
X148800000Y-110400000D02*
X149300000Y-110400000D01*
X149300000Y-110400000D02*
X149606000Y-110706000D01*
X149900000Y-109800000D02*
X151329000Y-109800000D01*
X151329000Y-109800000D02*
X152019000Y-110490000D01*
X149300000Y-109200000D02*
X149900000Y-109800000D01*
X148800000Y-109200000D02*
X149300000Y-109200000D01*
X148800000Y-108000000D02*
X151969000Y-108000000D01*
X151969000Y-108000000D02*
X152019000Y-107950000D01*
X149900000Y-106200000D02*
X151229000Y-106200000D01*
X151229000Y-106200000D02*
X152019000Y-105410000D01*
X148800000Y-106800000D02*
X149300000Y-106800000D01*
X149300000Y-106800000D02*
X149900000Y-106200000D01*
X148800000Y-102100000D02*
X151249000Y-102100000D01*
X151249000Y-102100000D02*
X152019000Y-102870000D01*
X149970000Y-100330000D02*
X152019000Y-100330000D01*
X148800000Y-101000000D02*
X149300000Y-101000000D01*
X149300000Y-101000000D02*
X149970000Y-100330000D01*
X150910000Y-97790000D02*
X148800000Y-99900000D01*
X152019000Y-97790000D02*
X150910000Y-97790000D01*
X143510000Y-104775000D02*
X143510000Y-105690000D01*
X143100000Y-106100000D02*
X139900000Y-106100000D01*
X139900000Y-106100000D02*
X138750000Y-104950000D01*
X143510000Y-105690000D02*
X143100000Y-106100000D01*
X138750000Y-104950000D02*
X137600000Y-104950000D01*
X137600000Y-104300000D02*
X140495000Y-104300000D01*
X140495000Y-104300000D02*
X140970000Y-104775000D01*
D29*
G36*
X121025000Y-108525000D02*
X119075000Y-108525000D01*
X119075000Y-99375000D01*
X121025000Y-99375000D01*
X121025000Y-108525000D01*
X121025000Y-108525000D01*
G37*
X121025000Y-108525000D02*
X119075000Y-108525000D01*
X119075000Y-99375000D01*
X121025000Y-99375000D01*
X121025000Y-108525000D01*
M02*
