G04 #@! TF.FileFunction,Copper,L2,Bot,Signal*
%FSLAX46Y46*%
G04 Gerber Fmt 4.6, Leading zero omitted, Abs format (unit mm)*
G04 Created by KiCad (PCBNEW 4.0.6) date 11/02/17 10:09:17*
%MOMM*%
%LPD*%
G01*
G04 APERTURE LIST*
%ADD10C,0.200000*%
%ADD11C,1.700000*%
%ADD12C,0.600000*%
%ADD13C,0.250000*%
%ADD14C,0.500000*%
%ADD15C,0.254000*%
G04 APERTURE END LIST*
D10*
D11*
X148590000Y-104775000D03*
X146050000Y-104775000D03*
X140970000Y-104775000D03*
X143510000Y-104775000D03*
D12*
X126025926Y-115978634D03*
X125850000Y-114300002D03*
X126049999Y-103850000D03*
X136100000Y-107700000D03*
X133700000Y-104900000D03*
X149300000Y-113900000D03*
X147200000Y-99200000D03*
X143900000Y-102900000D03*
X134800000Y-101500000D03*
X128400000Y-100100000D03*
X131800000Y-102200000D03*
X141000000Y-107300000D03*
X132900000Y-113000000D03*
X128500000Y-108800000D03*
X125500000Y-101500000D03*
X123400000Y-99600000D03*
X120000000Y-105500000D03*
X120000000Y-104500000D03*
X120000000Y-103500000D03*
X120000000Y-102500000D03*
X123150000Y-108300000D03*
X123900000Y-111650000D03*
X139700000Y-115600000D03*
X138900000Y-113100000D03*
X137500000Y-113100000D03*
X138600000Y-102000000D03*
X127900000Y-115350000D03*
X122500000Y-108900000D03*
X142000000Y-101800000D03*
X129600000Y-97100000D03*
X136100000Y-106900000D03*
X132900000Y-108800000D03*
X132900000Y-110850000D03*
X125500000Y-105950000D03*
X125500000Y-110050000D03*
X128718988Y-115358631D03*
X127800000Y-110050000D03*
X123900000Y-109050000D03*
X132600000Y-104899998D03*
X127051837Y-115195645D03*
X132600000Y-105800000D03*
X128400000Y-99299997D03*
X127300000Y-101400000D03*
X145100000Y-106300000D03*
X145500000Y-103100000D03*
D13*
X128400000Y-100100000D02*
X129700000Y-100100000D01*
X129700000Y-100100000D02*
X131800000Y-102200000D01*
X133700000Y-104900000D02*
X133700000Y-102600000D01*
X133700000Y-102600000D02*
X134800000Y-101500000D01*
X131800000Y-102500000D02*
X131800000Y-102200000D01*
X137500000Y-113100000D02*
X138900000Y-113100000D01*
D14*
X129600000Y-97100000D02*
X134500000Y-97100000D01*
X134500000Y-97100000D02*
X138600000Y-101200000D01*
X138600000Y-101200000D02*
X138600000Y-102000000D01*
X142000000Y-101800000D02*
X138800000Y-101800000D01*
X138800000Y-101800000D02*
X138600000Y-102000000D01*
D13*
X127600001Y-115649999D02*
X127900000Y-115350000D01*
X126755702Y-115824512D02*
X127425488Y-115824512D01*
X126426836Y-114895644D02*
X126426836Y-115495646D01*
X126483598Y-114838882D02*
X126426836Y-114895644D01*
X127425488Y-115824512D02*
X127600001Y-115649999D01*
X126426836Y-115495646D02*
X126755702Y-115824512D01*
X126483598Y-112883598D02*
X126483598Y-114838882D01*
X122500000Y-108900000D02*
X126483598Y-112883598D01*
X146400000Y-106200000D02*
X147165000Y-106200000D01*
X147165000Y-106200000D02*
X148590000Y-104775000D01*
X145674999Y-106925001D02*
X146400000Y-106200000D01*
X143900000Y-106200000D02*
X144625001Y-106925001D01*
X144625001Y-106925001D02*
X145674999Y-106925001D01*
X136100000Y-106900000D02*
X136800000Y-106200000D01*
X136800000Y-106200000D02*
X143900000Y-106200000D01*
X132900000Y-110850000D02*
X132900000Y-108800000D01*
X125500000Y-110050000D02*
X125500000Y-105950000D01*
X127800000Y-110050000D02*
X128718988Y-110968988D01*
X128718988Y-110968988D02*
X128718988Y-114934367D01*
X128718988Y-114934367D02*
X128718988Y-115358631D01*
X123900000Y-106624998D02*
X123900000Y-108625736D01*
X123900000Y-108625736D02*
X123900000Y-109050000D01*
X125625000Y-104899998D02*
X123900000Y-106624998D01*
X132600000Y-104899998D02*
X125625000Y-104899998D01*
X127900000Y-105800000D02*
X127051837Y-106648163D01*
X127051837Y-106648163D02*
X127051837Y-114771381D01*
X127051837Y-114771381D02*
X127051837Y-115195645D01*
X132600000Y-105800000D02*
X127900000Y-105800000D01*
X127300000Y-101400000D02*
X127300000Y-100274998D01*
X127300000Y-100274998D02*
X128275001Y-99299997D01*
X128275001Y-99299997D02*
X128400000Y-99299997D01*
X144800000Y-103800000D02*
X144800000Y-106000000D01*
X144800000Y-106000000D02*
X145100000Y-106300000D01*
X145500000Y-103100000D02*
X144800000Y-103800000D01*
D15*
G36*
X128873126Y-96954756D02*
X128872874Y-97243975D01*
X128983320Y-97511275D01*
X129187650Y-97715961D01*
X129454756Y-97826874D01*
X129743975Y-97827126D01*
X129865289Y-97777000D01*
X134219578Y-97777000D01*
X137923000Y-101480423D01*
X137923000Y-101734647D01*
X137873126Y-101854756D01*
X137872874Y-102143975D01*
X137983320Y-102411275D01*
X138187650Y-102615961D01*
X138454756Y-102726874D01*
X138743975Y-102727126D01*
X139011275Y-102616680D01*
X139151198Y-102477000D01*
X141734647Y-102477000D01*
X141854756Y-102526874D01*
X142143975Y-102527126D01*
X142411275Y-102416680D01*
X142615961Y-102212350D01*
X142726874Y-101945244D01*
X142727126Y-101656025D01*
X142616680Y-101388725D01*
X142412350Y-101184039D01*
X142145244Y-101073126D01*
X141856025Y-101072874D01*
X141734711Y-101123000D01*
X139261684Y-101123000D01*
X139225467Y-100940924D01*
X139078712Y-100721289D01*
X135284422Y-96927000D01*
X153873000Y-96927000D01*
X153873000Y-116673000D01*
X119127000Y-116673000D01*
X119127000Y-109043975D01*
X121772874Y-109043975D01*
X121883320Y-109311275D01*
X122087650Y-109515961D01*
X122354756Y-109626874D01*
X122446308Y-109626954D01*
X125931598Y-113112244D01*
X125931598Y-114662336D01*
X125916854Y-114684402D01*
X125885901Y-114840018D01*
X125874836Y-114895644D01*
X125874836Y-115495646D01*
X125916854Y-115706888D01*
X126036513Y-115885969D01*
X126365379Y-116214835D01*
X126544460Y-116334494D01*
X126755702Y-116376512D01*
X127425488Y-116376512D01*
X127636730Y-116334494D01*
X127815811Y-116214835D01*
X127953599Y-116077047D01*
X128043975Y-116077126D01*
X128302400Y-115970347D01*
X128306638Y-115974592D01*
X128573744Y-116085505D01*
X128862963Y-116085757D01*
X129130263Y-115975311D01*
X129334949Y-115770981D01*
X129445862Y-115503875D01*
X129446114Y-115214656D01*
X129335668Y-114947356D01*
X129270988Y-114882563D01*
X129270988Y-113243975D01*
X136772874Y-113243975D01*
X136883320Y-113511275D01*
X137087650Y-113715961D01*
X137354756Y-113826874D01*
X137643975Y-113827126D01*
X137911275Y-113716680D01*
X137976068Y-113652000D01*
X138423800Y-113652000D01*
X138487650Y-113715961D01*
X138754756Y-113826874D01*
X139043975Y-113827126D01*
X139311275Y-113716680D01*
X139515961Y-113512350D01*
X139626874Y-113245244D01*
X139627126Y-112956025D01*
X139516680Y-112688725D01*
X139312350Y-112484039D01*
X139045244Y-112373126D01*
X138756025Y-112372874D01*
X138488725Y-112483320D01*
X138423932Y-112548000D01*
X137976200Y-112548000D01*
X137912350Y-112484039D01*
X137645244Y-112373126D01*
X137356025Y-112372874D01*
X137088725Y-112483320D01*
X136884039Y-112687650D01*
X136773126Y-112954756D01*
X136772874Y-113243975D01*
X129270988Y-113243975D01*
X129270988Y-110968988D01*
X129228970Y-110757747D01*
X129109311Y-110578665D01*
X128527047Y-109996401D01*
X128527126Y-109906025D01*
X128416680Y-109638725D01*
X128212350Y-109434039D01*
X127945244Y-109323126D01*
X127656025Y-109322874D01*
X127603837Y-109344438D01*
X127603837Y-108943975D01*
X132172874Y-108943975D01*
X132283320Y-109211275D01*
X132348000Y-109276068D01*
X132348000Y-110373800D01*
X132284039Y-110437650D01*
X132173126Y-110704756D01*
X132172874Y-110993975D01*
X132283320Y-111261275D01*
X132487650Y-111465961D01*
X132754756Y-111576874D01*
X133043975Y-111577126D01*
X133311275Y-111466680D01*
X133515961Y-111262350D01*
X133626874Y-110995244D01*
X133627126Y-110706025D01*
X133516680Y-110438725D01*
X133452000Y-110373932D01*
X133452000Y-109276200D01*
X133515961Y-109212350D01*
X133626874Y-108945244D01*
X133627126Y-108656025D01*
X133516680Y-108388725D01*
X133312350Y-108184039D01*
X133045244Y-108073126D01*
X132756025Y-108072874D01*
X132488725Y-108183320D01*
X132284039Y-108387650D01*
X132173126Y-108654756D01*
X132172874Y-108943975D01*
X127603837Y-108943975D01*
X127603837Y-107043975D01*
X135372874Y-107043975D01*
X135483320Y-107311275D01*
X135687650Y-107515961D01*
X135954756Y-107626874D01*
X136243975Y-107627126D01*
X136511275Y-107516680D01*
X136715961Y-107312350D01*
X136826874Y-107045244D01*
X136826954Y-106953692D01*
X137028646Y-106752000D01*
X143671354Y-106752000D01*
X144234678Y-107315324D01*
X144413760Y-107434983D01*
X144625001Y-107477001D01*
X145674999Y-107477001D01*
X145886241Y-107434983D01*
X146065322Y-107315324D01*
X146628646Y-106752000D01*
X147165000Y-106752000D01*
X147376242Y-106709982D01*
X147555323Y-106590323D01*
X148164580Y-105981066D01*
X148334875Y-106051778D01*
X148842897Y-106052221D01*
X149312417Y-105858219D01*
X149671957Y-105499307D01*
X149866778Y-105030125D01*
X149867221Y-104522103D01*
X149673219Y-104052583D01*
X149314307Y-103693043D01*
X148845125Y-103498222D01*
X148337103Y-103497779D01*
X147867583Y-103691781D01*
X147508043Y-104050693D01*
X147438945Y-104217099D01*
X147345259Y-103990920D01*
X147093958Y-103910647D01*
X146229605Y-104775000D01*
X146243748Y-104789143D01*
X146064143Y-104968748D01*
X146050000Y-104954605D01*
X146035858Y-104968748D01*
X145856253Y-104789143D01*
X145870395Y-104775000D01*
X145856253Y-104760858D01*
X146035858Y-104581253D01*
X146050000Y-104595395D01*
X146914353Y-103731042D01*
X146834080Y-103479741D01*
X146278721Y-103278282D01*
X146211914Y-103281271D01*
X146226874Y-103245244D01*
X146227126Y-102956025D01*
X146116680Y-102688725D01*
X145912350Y-102484039D01*
X145645244Y-102373126D01*
X145356025Y-102372874D01*
X145088725Y-102483320D01*
X144884039Y-102687650D01*
X144773126Y-102954756D01*
X144773046Y-103046308D01*
X144409677Y-103409677D01*
X144290018Y-103588758D01*
X144290018Y-103588759D01*
X144263465Y-103722252D01*
X144234307Y-103693043D01*
X143765125Y-103498222D01*
X143257103Y-103497779D01*
X142787583Y-103691781D01*
X142428043Y-104050693D01*
X142239777Y-104504088D01*
X142053219Y-104052583D01*
X141694307Y-103693043D01*
X141225125Y-103498222D01*
X140717103Y-103497779D01*
X140247583Y-103691781D01*
X139888043Y-104050693D01*
X139693222Y-104519875D01*
X139692779Y-105027897D01*
X139886781Y-105497417D01*
X140037101Y-105648000D01*
X136800000Y-105648000D01*
X136588759Y-105690018D01*
X136424160Y-105800000D01*
X136409677Y-105809677D01*
X136046401Y-106172953D01*
X135956025Y-106172874D01*
X135688725Y-106283320D01*
X135484039Y-106487650D01*
X135373126Y-106754756D01*
X135372874Y-107043975D01*
X127603837Y-107043975D01*
X127603837Y-106876809D01*
X128128646Y-106352000D01*
X132123800Y-106352000D01*
X132187650Y-106415961D01*
X132454756Y-106526874D01*
X132743975Y-106527126D01*
X133011275Y-106416680D01*
X133215961Y-106212350D01*
X133326874Y-105945244D01*
X133327126Y-105656025D01*
X133216680Y-105388725D01*
X133178133Y-105350111D01*
X133215961Y-105312348D01*
X133326874Y-105045242D01*
X133327126Y-104756023D01*
X133216680Y-104488723D01*
X133012350Y-104284037D01*
X132745244Y-104173124D01*
X132456025Y-104172872D01*
X132188725Y-104283318D01*
X132123932Y-104347998D01*
X125625000Y-104347998D01*
X125413759Y-104390016D01*
X125413757Y-104390017D01*
X125413758Y-104390017D01*
X125234677Y-104509675D01*
X123509677Y-106234675D01*
X123390018Y-106413756D01*
X123362520Y-106552000D01*
X123348000Y-106624998D01*
X123348000Y-108573800D01*
X123284039Y-108637650D01*
X123227110Y-108774750D01*
X123227126Y-108756025D01*
X123116680Y-108488725D01*
X122912350Y-108284039D01*
X122645244Y-108173126D01*
X122356025Y-108172874D01*
X122088725Y-108283320D01*
X121884039Y-108487650D01*
X121773126Y-108754756D01*
X121772874Y-109043975D01*
X119127000Y-109043975D01*
X119127000Y-101543975D01*
X126572874Y-101543975D01*
X126683320Y-101811275D01*
X126887650Y-102015961D01*
X127154756Y-102126874D01*
X127443975Y-102127126D01*
X127711275Y-102016680D01*
X127915961Y-101812350D01*
X128026874Y-101545244D01*
X128027126Y-101256025D01*
X127916680Y-100988725D01*
X127852000Y-100923932D01*
X127852000Y-100503644D01*
X128328709Y-100026935D01*
X128543975Y-100027123D01*
X128811275Y-99916677D01*
X129015961Y-99712347D01*
X129126874Y-99445241D01*
X129127126Y-99156022D01*
X129016680Y-98888722D01*
X128812350Y-98684036D01*
X128545244Y-98573123D01*
X128256025Y-98572871D01*
X127988725Y-98683317D01*
X127784039Y-98887647D01*
X127696934Y-99097418D01*
X126909677Y-99884675D01*
X126790018Y-100063756D01*
X126790018Y-100063757D01*
X126748000Y-100274998D01*
X126748000Y-100923800D01*
X126684039Y-100987650D01*
X126573126Y-101254756D01*
X126572874Y-101543975D01*
X119127000Y-101543975D01*
X119127000Y-96927000D01*
X128884651Y-96927000D01*
X128873126Y-96954756D01*
X128873126Y-96954756D01*
G37*
X128873126Y-96954756D02*
X128872874Y-97243975D01*
X128983320Y-97511275D01*
X129187650Y-97715961D01*
X129454756Y-97826874D01*
X129743975Y-97827126D01*
X129865289Y-97777000D01*
X134219578Y-97777000D01*
X137923000Y-101480423D01*
X137923000Y-101734647D01*
X137873126Y-101854756D01*
X137872874Y-102143975D01*
X137983320Y-102411275D01*
X138187650Y-102615961D01*
X138454756Y-102726874D01*
X138743975Y-102727126D01*
X139011275Y-102616680D01*
X139151198Y-102477000D01*
X141734647Y-102477000D01*
X141854756Y-102526874D01*
X142143975Y-102527126D01*
X142411275Y-102416680D01*
X142615961Y-102212350D01*
X142726874Y-101945244D01*
X142727126Y-101656025D01*
X142616680Y-101388725D01*
X142412350Y-101184039D01*
X142145244Y-101073126D01*
X141856025Y-101072874D01*
X141734711Y-101123000D01*
X139261684Y-101123000D01*
X139225467Y-100940924D01*
X139078712Y-100721289D01*
X135284422Y-96927000D01*
X153873000Y-96927000D01*
X153873000Y-116673000D01*
X119127000Y-116673000D01*
X119127000Y-109043975D01*
X121772874Y-109043975D01*
X121883320Y-109311275D01*
X122087650Y-109515961D01*
X122354756Y-109626874D01*
X122446308Y-109626954D01*
X125931598Y-113112244D01*
X125931598Y-114662336D01*
X125916854Y-114684402D01*
X125885901Y-114840018D01*
X125874836Y-114895644D01*
X125874836Y-115495646D01*
X125916854Y-115706888D01*
X126036513Y-115885969D01*
X126365379Y-116214835D01*
X126544460Y-116334494D01*
X126755702Y-116376512D01*
X127425488Y-116376512D01*
X127636730Y-116334494D01*
X127815811Y-116214835D01*
X127953599Y-116077047D01*
X128043975Y-116077126D01*
X128302400Y-115970347D01*
X128306638Y-115974592D01*
X128573744Y-116085505D01*
X128862963Y-116085757D01*
X129130263Y-115975311D01*
X129334949Y-115770981D01*
X129445862Y-115503875D01*
X129446114Y-115214656D01*
X129335668Y-114947356D01*
X129270988Y-114882563D01*
X129270988Y-113243975D01*
X136772874Y-113243975D01*
X136883320Y-113511275D01*
X137087650Y-113715961D01*
X137354756Y-113826874D01*
X137643975Y-113827126D01*
X137911275Y-113716680D01*
X137976068Y-113652000D01*
X138423800Y-113652000D01*
X138487650Y-113715961D01*
X138754756Y-113826874D01*
X139043975Y-113827126D01*
X139311275Y-113716680D01*
X139515961Y-113512350D01*
X139626874Y-113245244D01*
X139627126Y-112956025D01*
X139516680Y-112688725D01*
X139312350Y-112484039D01*
X139045244Y-112373126D01*
X138756025Y-112372874D01*
X138488725Y-112483320D01*
X138423932Y-112548000D01*
X137976200Y-112548000D01*
X137912350Y-112484039D01*
X137645244Y-112373126D01*
X137356025Y-112372874D01*
X137088725Y-112483320D01*
X136884039Y-112687650D01*
X136773126Y-112954756D01*
X136772874Y-113243975D01*
X129270988Y-113243975D01*
X129270988Y-110968988D01*
X129228970Y-110757747D01*
X129109311Y-110578665D01*
X128527047Y-109996401D01*
X128527126Y-109906025D01*
X128416680Y-109638725D01*
X128212350Y-109434039D01*
X127945244Y-109323126D01*
X127656025Y-109322874D01*
X127603837Y-109344438D01*
X127603837Y-108943975D01*
X132172874Y-108943975D01*
X132283320Y-109211275D01*
X132348000Y-109276068D01*
X132348000Y-110373800D01*
X132284039Y-110437650D01*
X132173126Y-110704756D01*
X132172874Y-110993975D01*
X132283320Y-111261275D01*
X132487650Y-111465961D01*
X132754756Y-111576874D01*
X133043975Y-111577126D01*
X133311275Y-111466680D01*
X133515961Y-111262350D01*
X133626874Y-110995244D01*
X133627126Y-110706025D01*
X133516680Y-110438725D01*
X133452000Y-110373932D01*
X133452000Y-109276200D01*
X133515961Y-109212350D01*
X133626874Y-108945244D01*
X133627126Y-108656025D01*
X133516680Y-108388725D01*
X133312350Y-108184039D01*
X133045244Y-108073126D01*
X132756025Y-108072874D01*
X132488725Y-108183320D01*
X132284039Y-108387650D01*
X132173126Y-108654756D01*
X132172874Y-108943975D01*
X127603837Y-108943975D01*
X127603837Y-107043975D01*
X135372874Y-107043975D01*
X135483320Y-107311275D01*
X135687650Y-107515961D01*
X135954756Y-107626874D01*
X136243975Y-107627126D01*
X136511275Y-107516680D01*
X136715961Y-107312350D01*
X136826874Y-107045244D01*
X136826954Y-106953692D01*
X137028646Y-106752000D01*
X143671354Y-106752000D01*
X144234678Y-107315324D01*
X144413760Y-107434983D01*
X144625001Y-107477001D01*
X145674999Y-107477001D01*
X145886241Y-107434983D01*
X146065322Y-107315324D01*
X146628646Y-106752000D01*
X147165000Y-106752000D01*
X147376242Y-106709982D01*
X147555323Y-106590323D01*
X148164580Y-105981066D01*
X148334875Y-106051778D01*
X148842897Y-106052221D01*
X149312417Y-105858219D01*
X149671957Y-105499307D01*
X149866778Y-105030125D01*
X149867221Y-104522103D01*
X149673219Y-104052583D01*
X149314307Y-103693043D01*
X148845125Y-103498222D01*
X148337103Y-103497779D01*
X147867583Y-103691781D01*
X147508043Y-104050693D01*
X147438945Y-104217099D01*
X147345259Y-103990920D01*
X147093958Y-103910647D01*
X146229605Y-104775000D01*
X146243748Y-104789143D01*
X146064143Y-104968748D01*
X146050000Y-104954605D01*
X146035858Y-104968748D01*
X145856253Y-104789143D01*
X145870395Y-104775000D01*
X145856253Y-104760858D01*
X146035858Y-104581253D01*
X146050000Y-104595395D01*
X146914353Y-103731042D01*
X146834080Y-103479741D01*
X146278721Y-103278282D01*
X146211914Y-103281271D01*
X146226874Y-103245244D01*
X146227126Y-102956025D01*
X146116680Y-102688725D01*
X145912350Y-102484039D01*
X145645244Y-102373126D01*
X145356025Y-102372874D01*
X145088725Y-102483320D01*
X144884039Y-102687650D01*
X144773126Y-102954756D01*
X144773046Y-103046308D01*
X144409677Y-103409677D01*
X144290018Y-103588758D01*
X144290018Y-103588759D01*
X144263465Y-103722252D01*
X144234307Y-103693043D01*
X143765125Y-103498222D01*
X143257103Y-103497779D01*
X142787583Y-103691781D01*
X142428043Y-104050693D01*
X142239777Y-104504088D01*
X142053219Y-104052583D01*
X141694307Y-103693043D01*
X141225125Y-103498222D01*
X140717103Y-103497779D01*
X140247583Y-103691781D01*
X139888043Y-104050693D01*
X139693222Y-104519875D01*
X139692779Y-105027897D01*
X139886781Y-105497417D01*
X140037101Y-105648000D01*
X136800000Y-105648000D01*
X136588759Y-105690018D01*
X136424160Y-105800000D01*
X136409677Y-105809677D01*
X136046401Y-106172953D01*
X135956025Y-106172874D01*
X135688725Y-106283320D01*
X135484039Y-106487650D01*
X135373126Y-106754756D01*
X135372874Y-107043975D01*
X127603837Y-107043975D01*
X127603837Y-106876809D01*
X128128646Y-106352000D01*
X132123800Y-106352000D01*
X132187650Y-106415961D01*
X132454756Y-106526874D01*
X132743975Y-106527126D01*
X133011275Y-106416680D01*
X133215961Y-106212350D01*
X133326874Y-105945244D01*
X133327126Y-105656025D01*
X133216680Y-105388725D01*
X133178133Y-105350111D01*
X133215961Y-105312348D01*
X133326874Y-105045242D01*
X133327126Y-104756023D01*
X133216680Y-104488723D01*
X133012350Y-104284037D01*
X132745244Y-104173124D01*
X132456025Y-104172872D01*
X132188725Y-104283318D01*
X132123932Y-104347998D01*
X125625000Y-104347998D01*
X125413759Y-104390016D01*
X125413757Y-104390017D01*
X125413758Y-104390017D01*
X125234677Y-104509675D01*
X123509677Y-106234675D01*
X123390018Y-106413756D01*
X123362520Y-106552000D01*
X123348000Y-106624998D01*
X123348000Y-108573800D01*
X123284039Y-108637650D01*
X123227110Y-108774750D01*
X123227126Y-108756025D01*
X123116680Y-108488725D01*
X122912350Y-108284039D01*
X122645244Y-108173126D01*
X122356025Y-108172874D01*
X122088725Y-108283320D01*
X121884039Y-108487650D01*
X121773126Y-108754756D01*
X121772874Y-109043975D01*
X119127000Y-109043975D01*
X119127000Y-101543975D01*
X126572874Y-101543975D01*
X126683320Y-101811275D01*
X126887650Y-102015961D01*
X127154756Y-102126874D01*
X127443975Y-102127126D01*
X127711275Y-102016680D01*
X127915961Y-101812350D01*
X128026874Y-101545244D01*
X128027126Y-101256025D01*
X127916680Y-100988725D01*
X127852000Y-100923932D01*
X127852000Y-100503644D01*
X128328709Y-100026935D01*
X128543975Y-100027123D01*
X128811275Y-99916677D01*
X129015961Y-99712347D01*
X129126874Y-99445241D01*
X129127126Y-99156022D01*
X129016680Y-98888722D01*
X128812350Y-98684036D01*
X128545244Y-98573123D01*
X128256025Y-98572871D01*
X127988725Y-98683317D01*
X127784039Y-98887647D01*
X127696934Y-99097418D01*
X126909677Y-99884675D01*
X126790018Y-100063756D01*
X126790018Y-100063757D01*
X126748000Y-100274998D01*
X126748000Y-100923800D01*
X126684039Y-100987650D01*
X126573126Y-101254756D01*
X126572874Y-101543975D01*
X119127000Y-101543975D01*
X119127000Y-96927000D01*
X128884651Y-96927000D01*
X128873126Y-96954756D01*
M02*
