G04 #@! TF.FileFunction,Soldermask,Top*
%FSLAX46Y46*%
G04 Gerber Fmt 4.6, Leading zero omitted, Abs format (unit mm)*
G04 Created by KiCad (PCBNEW 4.0.6) date 11/02/17 10:09:17*
%MOMM*%
%LPD*%
G01*
G04 APERTURE LIST*
%ADD10C,0.200000*%
%ADD11R,1.700000X0.550000*%
%ADD12R,0.600000X0.700000*%
%ADD13R,1.300000X1.300000*%
%ADD14R,0.530000X1.085000*%
%ADD15R,0.700000X0.700000*%
%ADD16R,0.800000X0.800000*%
%ADD17R,3.100000X1.700000*%
%ADD18R,0.900000X1.200000*%
%ADD19R,1.200000X0.900000*%
%ADD20R,1.570000X1.000000*%
%ADD21R,0.700000X0.600000*%
%ADD22R,1.085000X0.530000*%
%ADD23R,1.650000X2.300000*%
%ADD24R,1.800000X0.700000*%
%ADD25R,4.300000X2.300000*%
%ADD26C,2.000000*%
G04 APERTURE END LIST*
D10*
D11*
X131200000Y-110150000D03*
X131200000Y-109500000D03*
X131200000Y-104300000D03*
X131200000Y-104950000D03*
X131200000Y-105600000D03*
X131200000Y-106250000D03*
X131200000Y-106900000D03*
X131200000Y-107550000D03*
X131200000Y-108200000D03*
X131200000Y-108850000D03*
X137600000Y-110150000D03*
X137600000Y-109500000D03*
X137600000Y-108850000D03*
X137600000Y-108200000D03*
X137600000Y-107550000D03*
X137600000Y-106900000D03*
X137600000Y-106250000D03*
X137600000Y-105600000D03*
X137600000Y-104950000D03*
X137600000Y-104300000D03*
D12*
X132731000Y-114396000D03*
X132081000Y-114396000D03*
X131431000Y-114396000D03*
X132731000Y-116246000D03*
X132081000Y-116246000D03*
X131431000Y-116246000D03*
D13*
X132361000Y-115316000D03*
D14*
X131341000Y-115296000D03*
D15*
X125225000Y-115951000D03*
X123825000Y-115951000D03*
D16*
X142700000Y-115400000D03*
X142700000Y-114500000D03*
X132900000Y-112100000D03*
X133800000Y-112100000D03*
X123400000Y-100550000D03*
X123400000Y-101450000D03*
X129200000Y-100100000D03*
X130100000Y-100100000D03*
X132600000Y-102200000D03*
X132600000Y-101300000D03*
D17*
X134620000Y-103200000D03*
X134620000Y-100400000D03*
D16*
X140200000Y-107300000D03*
X139300000Y-107300000D03*
X131981000Y-113050000D03*
X131981000Y-112150000D03*
D15*
X129200000Y-105550000D03*
X127800000Y-105550000D03*
X127800000Y-109300000D03*
X129200000Y-109300000D03*
X126900000Y-109300000D03*
X125500000Y-109300000D03*
X123931000Y-108300000D03*
X123931000Y-109700000D03*
D16*
X123150000Y-107300000D03*
X123150000Y-106400000D03*
X133800000Y-114800000D03*
X133800000Y-115700000D03*
X133800000Y-113000000D03*
X133800000Y-113900000D03*
X127700000Y-102300000D03*
X127700000Y-103200000D03*
X142700000Y-113100000D03*
X143600000Y-113100000D03*
X125600000Y-108250000D03*
X126500000Y-108250000D03*
X131500000Y-100100000D03*
X132400000Y-100100000D03*
X128700000Y-104700000D03*
X127800000Y-104700000D03*
X129400000Y-116050000D03*
X130300000Y-116050000D03*
X129400000Y-115200000D03*
X130300000Y-115200000D03*
X124781000Y-112500000D03*
X123881000Y-112500000D03*
X123881000Y-113700000D03*
X124781000Y-113700000D03*
X144200000Y-102200000D03*
X143300000Y-102200000D03*
X127381000Y-114450000D03*
X128281000Y-114450000D03*
X140300000Y-102200000D03*
X141200000Y-102200000D03*
X136765000Y-102200000D03*
X137665000Y-102200000D03*
X124831000Y-110700000D03*
X123931000Y-110700000D03*
X124781000Y-114950000D03*
X123881000Y-114950000D03*
X130981000Y-113050000D03*
X130981000Y-112150000D03*
X129400000Y-114350000D03*
X130300000Y-114350000D03*
D18*
X126500000Y-104800000D03*
X125550000Y-104800000D03*
X124600000Y-104800000D03*
X124600000Y-107100000D03*
X125550000Y-107100000D03*
X126500000Y-107100000D03*
D19*
X129000000Y-101300000D03*
X129000000Y-102250000D03*
X129000000Y-103200000D03*
X131300000Y-103200000D03*
X131300000Y-101300000D03*
D20*
X141296000Y-115600000D03*
X141296000Y-114330000D03*
X141296000Y-113060000D03*
X141296000Y-111790000D03*
X135200000Y-111790000D03*
X135200000Y-113060000D03*
X135200000Y-114330000D03*
X135200000Y-115600000D03*
D18*
X126500000Y-100600000D03*
X125550000Y-100600000D03*
X124600000Y-100600000D03*
X124600000Y-102900000D03*
X126500000Y-102900000D03*
D21*
X127580000Y-106830000D03*
X127580000Y-107480000D03*
X127580000Y-108130000D03*
X129430000Y-106830000D03*
X129430000Y-107480000D03*
X129430000Y-108130000D03*
D13*
X128500000Y-107200000D03*
D22*
X128480000Y-108220000D03*
D12*
X127401000Y-111680000D03*
X126751000Y-111680000D03*
X126101000Y-111680000D03*
X127401000Y-113530000D03*
X126751000Y-113530000D03*
X126101000Y-113530000D03*
D13*
X127031000Y-112600000D03*
D14*
X126011000Y-112580000D03*
D21*
X143280000Y-99830000D03*
X143280000Y-100480000D03*
X143280000Y-101130000D03*
X145130000Y-99830000D03*
X145130000Y-100480000D03*
X145130000Y-101130000D03*
D13*
X144200000Y-100200000D03*
D22*
X144180000Y-101220000D03*
D21*
X140280000Y-99830000D03*
X140280000Y-100480000D03*
X140280000Y-101130000D03*
X142130000Y-99830000D03*
X142130000Y-100480000D03*
X142130000Y-101130000D03*
D13*
X141200000Y-100200000D03*
D22*
X141180000Y-101220000D03*
D12*
X129801000Y-111680000D03*
X129151000Y-111680000D03*
X128501000Y-111680000D03*
X129801000Y-113530000D03*
X129151000Y-113530000D03*
X128501000Y-113530000D03*
D13*
X129431000Y-112600000D03*
D14*
X128411000Y-112580000D03*
D21*
X136745000Y-99830000D03*
X136745000Y-100480000D03*
X136745000Y-101130000D03*
X138595000Y-99830000D03*
X138595000Y-100480000D03*
X138595000Y-101130000D03*
D13*
X137665000Y-100200000D03*
D22*
X137645000Y-101220000D03*
D23*
X119700000Y-100600000D03*
D24*
X122400000Y-105250000D03*
X122400000Y-104600000D03*
X122400000Y-103950000D03*
X122400000Y-103300000D03*
X122400000Y-102650000D03*
D23*
X119700000Y-107300000D03*
D25*
X147193000Y-115570000D03*
X127889000Y-97790000D03*
X123063000Y-97790000D03*
X132715000Y-97790000D03*
X137541000Y-97790000D03*
X142367000Y-97790000D03*
X147193000Y-97790000D03*
X121031000Y-110490000D03*
X121031000Y-115570000D03*
X121031000Y-113030000D03*
D26*
X148590000Y-104775000D03*
X146050000Y-104775000D03*
X140970000Y-104775000D03*
X143510000Y-104775000D03*
D16*
X147900000Y-110400000D03*
X148800000Y-110400000D03*
X147900000Y-109200000D03*
X148800000Y-109200000D03*
X147900000Y-108000000D03*
X148800000Y-108000000D03*
X147900000Y-106800000D03*
X148800000Y-106800000D03*
X147900000Y-102100000D03*
X148800000Y-102100000D03*
X147900000Y-101000000D03*
X148800000Y-101000000D03*
X147900000Y-99900000D03*
X148800000Y-99900000D03*
D25*
X152019000Y-113030000D03*
X152019000Y-110490000D03*
X152019000Y-107950000D03*
X152019000Y-105410000D03*
X152019000Y-102870000D03*
X152019000Y-100330000D03*
X152019000Y-97790000D03*
X152019000Y-115570000D03*
D16*
X139400000Y-101300000D03*
X139400000Y-102200000D03*
M02*
